<?xml version="1.0" encoding="utf-8"?>
<?xml-stylesheet type="text/xsl" href="rss1.xsl"?>
<rss version="2.0" xmlns:atom="http://www.w3.org/2005/Atom" xmlns:content="http://purl.org/rss/1.0/modules/content/" xmlns:dc="http://purl.org/dc/elements/1.1/" xmlns:media="http://search.yahoo.com/mrss/">
<channel>
 <title>Getty</title>
 <link>http://www.gettyimg.com/</link>
 <atom:link href="http://www.gettyimg.com/" rel="self" type="application/rss+xml" />

 
                <item>
                <title><![CDATA[【HD Live Performances】HDTV - Hozier &amp; Maren Morris - CMT Crossroads HDTV MPEG2 1080i DD2.0-ilya2129]]></title>
                <link><![CDATA[https://sharemania.us/threads/hozier-maren-morris-cmt-crossroads-hdtv-mpeg2-1080i-dd2-0-ilya2129.229867/]]></link>
                <description><![CDATA[<article>
<blockquote class="messageText SelectQuoteContainer ugc baseHtml">
<div style="text-align: center"><img src="https://i117.fastpic.org/big/2022/0421/b3/374327709ce1685d990d29e14a5394b3.png?r=1" class="bbCodeImage LbImage" alt="[​IMG]" data-url="https://i117.fastpic.org/big/2022/0421/b3/374327709ce1685d990d29e14a5394b3.png?r=1" style=""><br>
<br>
<a href="https://postimg.cc/s1jqBfc1" target="_blank" class="externalLink" rel="nofollow"><img src="https://i.postimg.cc/s1jqBfc1/vlcsnap-2023-10-06-18h15m20s087.png" class="bbCodeImage LbImage" alt="[​IMG]" data-url="https://i.postimg.cc/s1jqBfc1/vlcsnap-2023-10-06-18h15m20s087.png"></a> <a href="https://postimg.cc/4nWMpCLP" target="_blank" class="externalLink" rel="nofollow"><img src="https://i.postimg.cc/4nWMpCLP/vlcsnap-2023-10-06-18h15m24s394.png" class="bbCodeImage LbImage" alt="[​IMG]" data-url="https://i.postimg.cc/4nWMpCLP/vlcsnap-2023-10-06-18h15m24s394.png"></a> <a href="https://postimg.cc/rd2YqqsV" target="_blank" class="externalLink" rel="nofollow"><img src="https://i.postimg.cc/rd2YqqsV/vlcsnap-2023-10-06-18h15m26s331.png" class="bbCodeImage LbImage" alt="[​IMG]" data-url="https://i.postimg.cc/rd2YqqsV/vlcsnap-2023-10-06-18h15m26s331.png"></a> <a href="https://postimg.cc/RWHDrWMp" target="_blank" class="externalLink" rel="nofollow"><img src="https://i.postimg.cc/RWHDrWMp/vlcsnap-2023-10-06-18h15m28s273.png" class="bbCodeImage LbImage" alt="[​IMG]" data-url="https://i.postimg.cc/RWHDrWMp/vlcsnap-2023-10-06-18h15m28s273.png"></a> <a href="https://postimg.cc/GBPg26Tk" target="_blank" class="externalLink" rel="nofollow"><img src="https://i.postimg.cc/GBPg26Tk/vlcsnap-2023-10-06-18h15m32s303.png" class="bbCodeImage LbImage" alt="[​IMG]" data-url="https://i.postimg.cc/GBPg26Tk/vlcsnap-2023-10-06-18h15m32s303.png"></a> <a href="https://postimg.cc/9rSnNdjq" target="_blank" class="externalLink" rel="nofollow"><img src="https://i.postimg.cc/9rSnNdjq/vlcsnap-2023-10-06-18h15m34s739.png" class="bbCodeImage LbImage" alt="[​IMG]" data-url="https://i.postimg.cc/9rSnNdjq/vlcsnap-2023-10-06-18h15m34s739.png"></a> <a href="https://postimg.cc/kBDHcjLm" target="_blank" class="externalLink" rel="nofollow"><img src="https://i.postimg.cc/kBDHcjLm/vlcsnap-2023-10-06-18h15m37s618.png" class="bbCodeImage LbImage" alt="[​IMG]" data-url="https://i.postimg.cc/kBDHcjLm/vlcsnap-2023-10-06-18h15m37s618.png"></a> <br>
<br>
Work Song<br>
The Bones<br>
Eat Your Young<br>
Take Me To Church<br>
The Tree<br>
GIRL<br>
All Things End<br>
My Church<br>
​</div><br>
<div class="bbCodeBlock bbCodeCode">
<div class="type">Code:</div>
<pre>General
ID                                       : 1 (0x1)
Complete name                            : D:\Hozier &amp; Maren Morris - CMT Crossroads HDTV MPEG2 1080i DD2.0-ilya2129.ts
Format                                   : MPEG-TS
File size                                : 3.49 GiB
Duration                                 : 43 min 39 s
Overall bit rate mode                    : Variable
Overall bit rate                         : 11.4 Mb/s
Frame rate                               : 29.970 FPS
Law rating                               : TV-PG

Video
ID                                       : 302 (0x12E)
Menu ID                                  : 1 (0x1)
Format                                   : MPEG Video
Format version                           : Version 2
Format profile                           : Main@High
Format settings                          : BVOP
Format settings, BVOP                    : Yes
Format settings, Matrix                  : Default
Format settings, GOP                     : Variable
Format settings, picture structure       : Frame
Codec ID                                 : 2
Duration                                 : 43 min 39 s
Bit rate mode                            : Variable
Bit rate                                 : 10.4 Mb/s
Maximum bit rate                         : 80.0 Mb/s
Width                                    : 1 920 pixels
Height                                   : 1 080 pixels
Display aspect ratio                     : 16:9
Active Format Description                : Letterbox 16:9 image
Frame rate                               : 29.970 (30000/1001) FPS
Color space                              : YUV
Chroma subsampling                       : 4:2:0
Bit depth                                : 8 bits
Scan type                                : Interlaced
Scan order                               : Top Field First
Compression mode                         : Lossy
Bits/(Pixel*Frame)                       : 0.168
Time code of first frame                 : 07:53:59;02
Time code source                         : Group of pictures header
Stream size                              : 3.18 GiB (91%)

Audio #1
ID                                       : 303 (0x12F)
Menu ID                                  : 1 (0x1)
Format                                   : AC-3
Format/Info                              : Audio Coding 3
Commercial name                          : Dolby Digital
Codec ID                                 : 129
Duration                                 : 43 min 39 s
Bit rate mode                            : Constant
Bit rate                                 : 384 kb/s
Channel(s)                               : 2 channels
Channel layout                           : L R
Sampling rate                            : 48.0 kHz
Frame rate                               : 31.250 FPS (1536 SPF)
Compression mode                         : Lossy
Delay relative to video                  : 31 ms
Stream size                              : 120 MiB (3%)
Language                                 : English
Service kind                             : Complete Main

Audio #2
ID                                       : 304 (0x130)
Menu ID                                  : 1 (0x1)
Format                                   : AC-3
Format/Info                              : Audio Coding 3
Commercial name                          : Dolby Digital
Codec ID                                 : 129
Duration                                 : 43 min 39 s
Bit rate mode                            : Constant
Bit rate                                 : 64.0 kb/s
Channel(s)                               : 1 channel
Channel layout                           : M
Sampling rate                            : 48.0 kHz
Frame rate                               : 31.250 FPS (1536 SPF)
Compression mode                         : Lossy
Delay relative to video                  : 20 ms
Stream size                              : 20.0 MiB (0%)
Language                                 : Spanish
Service kind                             : Complete Main

Text #1
ID                                       : 302 (0x12E)-CC1
Menu ID                                  : 1 (0x1)
Format                                   : EIA-608
Muxing mode                              : A/53 / DTVCC Transport
Muxing mode, more info                   : Muxed in Video #1
Duration                                 : 43 min 39 s
Start time (commands)                    : 482 ms
Start time                               : 1 s 283 ms
Bit rate mode                            : Constant
Stream size                              : 0.00 Byte (0%)
Count of frames before first event       : 25
Type of the first event                  : PopOn

Text #2
ID                                       : 302 (0x12E)-CC4
Menu ID                                  : 1 (0x1)
Format                                   : EIA-608
Muxing mode                              : A/53 / DTVCC Transport
Muxing mode, more info                   : Muxed in Video #1
Duration                                 : 43 min 39 s
Start time (commands)                    : 1 s 49 ms
Bit rate mode                            : Constant
Stream size                              : 0.00 Byte (0%)

Text #3
ID                                       : 302 (0x12E)-1
Menu ID                                  : 1 (0x1)
Format                                   : EIA-708
Muxing mode                              : A/53 / DTVCC Transport
Muxing mode, more info                   : Muxed in Video #1
Duration                                 : 43 min 39 s
Bit rate mode                            : Constant
Stream size                              : 0.00 Byte (0%)

</pre>
</div><div style="text-align: center">
<div class="bbCodeBlock bbCodeVfcHH HiddenContent">
<div class="attribution type">Hidden Content:</div>
<blockquote>You must reply before you can see the hidden data contained here.</blockquote>
</div></div>
<div class="messageTextEndMarker">&nbsp;</div>
</blockquote>
</article>]]></description>
                <author><![CDATA[ilya2129]]></author>
                </item>

                
                <item>
                <title><![CDATA[【Live Audios (lossless)】FLAC - No Tears Left To Cry Sessions - Ariana Grande Studio Recording Leak]]></title>
                <link><![CDATA[https://sharemania.us/threads/no-tears-left-to-cry-sessions-ariana-grande-studio-recording-leak.229866/]]></link>
                <description><![CDATA[<article>
<blockquote class="messageText SelectQuoteContainer ugc baseHtml">
<div style="text-align: center"><img src="https://akamai.sscdn.co/uploadfile/letras/albuns_high/93761_20200905080204.jpg" class="bbCodeImage LbImage" alt="[​IMG]" data-url="https://akamai.sscdn.co/uploadfile/letras/albuns_high/93761_20200905080204.jpg" style=""><br>
no autotune full recording (1:42:26)<br>
‎recording dates - 11/29‎/17 to 12/05/17<br>
raw vocals queen!<br>
<div class="bbCodeBlock bbCodeVfcHH HiddenContent">
<div class="attribution type">Hidden Content:</div>
<blockquote>You must either reply or click 'Like' to see the hidden information contained here.</blockquote>
</div>Check Gloss full studio sessions here:
<div class="bbCodeBlock bbCodeVfcHH HiddenContent">
<div class="attribution type">Hidden Content:</div>
<blockquote>You must reply before you can see the hidden data contained here.</blockquote>
</div></div>
<div class="messageTextEndMarker">&nbsp;</div>
</blockquote>
</article>]]></description>
                <author><![CDATA[02020203]]></author>
                </item>

                
                <item>
                <title><![CDATA[【Apple Music】WEB-RiP - Jax Jones &amp; AuRa  - i miss u (1080p)]]></title>
                <link><![CDATA[https://sharemania.us/threads/jax-jones-aura-i-miss-u-1080p.229865/]]></link>
                <description><![CDATA[<article>
<blockquote class="messageText SelectQuoteContainer ugc baseHtml">
<img src="https://i.imgur.com/wkaZ9EV.jpg" class="bbCodeImage LbImage" alt="[​IMG]" data-url="https://i.imgur.com/wkaZ9EV.jpg" style=""><br>
<br>
<div class="bbCodeBlock bbCodeCode">
<div class="type">Code:</div>
<pre>General
Complete name                  : G:\Новая папка\Jax Jones &amp; AuRa  - i miss u.mp4
Format                         : MPEG-4
Format profile                 : Base Media
Codec ID                       : isom (isom/iso2/avc1/mp41)
File size                      : 217 MiB
Duration                       : 3 min 7 s
Overall bit rate               : 9 709 kb/s
Frame rate                     : 25.000 FPS
Movie name                     : i miss u
Performer                      : Jax Jones &amp; Au/Ra
Genre                          : Dance
Recorded date                  : 2020-10-09 07:00:00 UTC
Writing application            : Lavf54.59.106
Copyright                      : ℗ A Polydor Records recording; © 2020 Universal Music Operations Limited

Video
ID                             : 1
Format                         : AVC
Format/Info                    : Advanced Video Codec
Format profile                 : High@L4
Format settings                : CABAC / 5 Ref Frames
Format settings, CABAC         : Yes
Format settings, Reference fra : 5 frames
Codec ID                       : avc1
Codec ID/Info                  : Advanced Video Coding
Duration                       : 3 min 7 s
Bit rate                       : 9 451 kb/s
Width                          : 1 912 pixels
Height                         : 712 pixels
Display aspect ratio           : 2.685
Frame rate mode                : Constant
Frame rate                     : 25.000 FPS
Color space                    : YUV
Chroma subsampling             : 4:2:0
Bit depth                      : 8 bits
Scan type                      : Progressive
Bits/(Pixel*Frame)             : 0.278
Stream size                    : 211 MiB (97%)
Color range                    : Limited
Color primaries                : BT.709
Transfer characteristics       : BT.709
Matrix coefficients            : BT.709
Codec configuration box        : avcC

Audio
ID                             : 2
Format                         : AAC LC
Format/Info                    : Advanced Audio Codec Low Complexity
Codec ID                       : mp4a-40-2
Duration                       : 3 min 7 s
Bit rate mode                  : Constant
Bit rate                       : 255 kb/s
Channel(s)                     : 2 channels
Channel layout                 : L R
Sampling rate                  : 48.0 kHz
Frame rate                     : 46.875 FPS (1024 SPF)
Compression mode               : Lossy
Stream size                    : 5.68 MiB (3%)
Default                        : Yes
Alternate group                : 1

</pre>
</div>
<div class="bbCodeBlock bbCodeVfcHH HiddenContent">
<div class="attribution type">Hidden Content:</div>
<blockquote>You must either reply or click 'Like' to see the hidden information contained here.</blockquote>
</div>
<div class="messageTextEndMarker">&nbsp;</div>
</blockquote>
</article>]]></description>
                <author><![CDATA[vitalya3]]></author>
                </item>

                </channel></rss>